<svg xmlns="http://www.w3.org/2000/svg" xmlns:xlink="http://www.w3.org/1999/xlink" version="1.1">
	<defs>

		<!-- Down arrow -->
		<symbol id="up_arrow" viewBox="0 0 48.2 47.8">
			<title>
				Up arrow
			</title>
			<path d="M24.2,47c12.7,0,23-10.3,23-23c0-12.7-10.3-23-23-23c-12.7,0-23,10.3-23,23C1.2,36.7,11.5,47,24.2,47z M24.2,15.2l6.8,8.2h-4.3v8.4h-4.9v-8.4h-4.3L24.2,15.2z"/>
		</symbol>

		<!-- Down arrow -->
		<symbol id="down_arrow" viewBox="0 0 48.2 47.8">
			<title>
				Down arrow
			</title>
			<path d="M24.2,1c-12.7,0-23,10.3-23,23c0,12.7,10.3,23,23,23c12.7,0,23-10.3,23-23C47.2,11.3,36.9,1,24.2,1z M24.3,32.9l-6.8-8.2h4.3v-8.4h4.9v8.4H31L24.3,32.9z"/>
		</symbol>

		<!-- Left arrow -->
		<symbol id="left_arrow" viewBox="0 0 48.2 47.8">
			<title>
				Left arrow
			</title>
			<path d="M47.2,24c0-12.7-10.3-23-23-23c-12.7,0-23,10.3-23,23c0,12.7,10.3,23,23,23C36.9,47,47.2,36.7,47.2,24z M15.4,24.1l8.2-6.8v4.3h8.4v4.9h-8.4v4.3L15.4,24.1z"/>
		</symbol>

		<!-- Right arrow -->
		<symbol id="right_arrow" viewBox="0 0 48.2 47.8">
			<title>
				Right arrow
			</title>
			<path d="M1.2,24c0,12.7,10.3,23,23,23c12.7,0,23-10.3,23-23c0-12.7-10.3-23-23-23C11.5,1,1.2,11.3,1.2,24z M33.1,24l-8.2,6.8v-4.3h-8.4v-4.9h8.4v-4.3L33.1,24z"/>
		</symbol>

		<!-- Email -->
		<symbol id="email" viewBox="0 0 50 50">
			<title>
				Email
			</title>
			<g>
				<path style="fill:#00ba99;" d="M49,22L31,40c-1,1-3.2,1.8-5.5,1.8C23.2,41.8,21,41,20,40C18.8,39,2,22,2,22v23c0,2.5,2,4.5,4.5,4.5h38.8v-0.1c2.2-0.3,4-2.1,4-4.4V22H49z"/>
			</g>
			<path d="M48,20L30.4,2.4l0,0c-1.2-1.4-2.9-2.2-4.9-2.2c-1.8,0-3.5,0.7-4.6,1.9l0,0L3,20l11,11V20h23v11L48,20z"/>
		</symbol>

		<!-- Instagram -->
		<symbol id="instagram" viewBox="0 0 54 52">
			<title>
				Instagram
			</title>
			<g>
				<path style="fill:#00ba99;" d="M6.2,43.4c0,2.1,1.7,3.9,3.9,3.9h33.5v0c1.9-0.2,3.4-1.8,3.4-3.8V24.8H6.2V43.4z"/>
			</g>
			<g>
				<path d="M47,10.1c0-2.1-1.7-3.9-3.9-3.9l-33.5,0v0c-1.9,0.2-3.4,1.8-3.4,3.8l0,10.3H47L47,10.1z"/>
			</g>
			<circle style="fill:#fff;" cx="26.6" cy="25.9" r="11.3"/>
			<path style="fill:#fff;" d="M42.2,10h-3.9c-0.4,0-0.8,0.3-0.8,0.8v3.9c0,0.4,0.3,0.8,0.8,0.8h3.9c0.4,0,0.8-0.3,0.8-0.8v-3.9C43,10.3,42.7,10,42.2,10z"/>
		</symbol>

		<!-- LinkedIn -->
		<symbol id="linkedin" viewBox="0 0 67 56.1">
			<title>
				LinkedIn
			</title>
			<path d="M64,33.4c0-2.6-0.4-5.1-1.7-7.4c-1.1-2-2.7-3.4-4.9-4.2c-1.8-0.7-3.7-0.8-5.6-0.6c-2,0.3-3.7,1-5.1,2.5
					c-0.5,0.6-1,1.2-1.6,1.8c0-0.1,0-0.2,0-0.4c0-0.5,0-1,0-1.6c0-0.2,0-0.5,0-0.7c-0.1-0.6-0.6-1.1-1.3-1.1c-0.1,0-0.1,0-0.2,0v0h-6.2
					v0c-0.1,0-0.2,0-0.2,0c-0.6,0.1-1.1,0.6-1.2,1.3c0,0.2,0,0.3,0,0.5c0,8.6,0,17.2,0,25.7c3,0,6.1,0,9.1,0c0-0.2,0-0.3,0-0.5
					c0-4.9,0-9.7,0-14.6c0-0.7,0-1.5,0.2-2.2c0.6-1.9,2.2-3.5,4.4-3.6c2.1-0.1,3.8,0.8,4.5,2.9c0.4,1.2,0.5,2.4,0.5,3.6
					c0,4.7,0,9.3,0,14c0,0.1,0,0.3,0,0.4c3.1,0,6.1,0,9.1,0c0-0.1,0-0.2,0-0.3C64,43.7,64,38.5,64,33.4z"/>
			<g>
				<path style="fill:#00BA99;" d="M4.2,49.2H39C38.9,43.2,35.8,38,31.2,35c-2.6,2.6-6.2,4.2-10.2,4.2c-3.8,0-7.2-1.4-9.7-3.7
									C7.1,38.5,4.3,43.5,4.2,49.2z"/>
				<path style="fill:#00BA99;" d="M21,15.3c-5.8,0-10.5,4.5-10.5,10.1c0,3.3,1.6,6.2,4.2,8.1c1.8,1.3,4,2.1,6.4,2.1c2.6,0,4.9-0.9,6.8-2.4
									c2.3-1.9,3.8-4.6,3.8-7.8C31.6,19.8,26.8,15.3,21,15.3z"/>
			</g>
		</symbol>

		<!-- Twitter -->
		<symbol id="twitter" viewBox="0 0 107 70">
			<title>
				Twitter
			</title>
			<path style="fill: #00BA99;" d="M4.1,24.5c0,0,4,9.9,6.2,14c1.2,3.2,4.3,5.5,7.9,5.5c4.7,0,8.5-3.8,8.5-8.5c0-1.8-2.6-6.6-7.2-8.6
								C13.1,24.1,4.1,24.5,4.1,24.5z"/>
			<g>
				<path d="M77.1,21.2c-0.1-0.5-0.1-1.1-0.3-1.6C76.8,20.1,76.9,20.7,77.1,21.2z"/>
				<path d="M91.3,31.2L91.3,31.2c-0.5,0-1,0-1.5,0H91.3z"/>
				<path d="M89.8,5c-6.6,0-12,4.8-12.9,11.1c-0.1,0.7-0.2,1.3-0.2,2c0,0.5,0,1,0.1,1.5c0.1,0.5,0.2,1,0.3,1.6c0,0.3,0.1,0.6,0.1,1
						c0,4-2.4,7.5-5.8,9.1h18.4c0.5,0,1,0,1.5-0.1v0c6.5-0.7,11.6-6.3,11.6-13C102.9,10.9,97,5,89.8,5z M87.9,19.4L87.9,19.4
						c0,1.1,0.9,2,2,2h2.8v0c0,0,0.1,0,0.1,0c0.2,0,0.4,0.1,0.5,0.1c0.7,0.2,1.2,0.8,1.2,1.6c0,0.9-0.8,1.7-1.7,1.7c0,0-0.1,0-0.1,0v0
						H89c-0.1,0-0.2,0-0.3,0c-2.4-0.2-4.2-2.1-4.2-4.5c0-0.1,0-0.3,0-0.4h0l0-6h0c0.1-0.8,0.9-1.5,1.7-1.5c0.9,0,1.6,0.7,1.7,1.5h0
						l0,0.2c0,0,0,0,0,0c0,0,0,0,0,0l0,1.1h4.9c0.9,0,1.7,0.8,1.7,1.7c0,0.8-0.6,1.5-1.4,1.6c-0.1,0-0.2,0.1-0.3,0.1h-1.1h-3.7h-0.2
						L87.9,19.4z"/>
				<path d="M89.8,31.2c0.5,0,1,0,1.5-0.1v0C90.8,31.2,90.3,31.2,89.8,31.2z"/>
				<path d="M87.9,19.4L87.9,19.4C87.9,19.4,87.9,19.4,87.9,19.4C87.9,19.4,87.9,19.4,87.9,19.4z"/>
			</g>
			<g>
				<path style="fill: #00BA99;" d="M62.5,27.7c-1.7-6-7.4-10.4-14.1-10.4c-3.2,0-7.1,0.8-10.1,3.8c-2.8,2.8-4.8,7.9-5,8.6
									c-1.2,4.5-7.2,28.7-21.2,26.7c0,0,6,10.1,20.1,10.1c14,0,25.7-5.6,30.1-28.2c0.1-0.5,0.2-1,0.2-1.5l6.1-4.6L62.5,27.7z M49.7,36.1
									c-2.4,0-4.4-2-4.4-4.4s2-4.4,4.4-4.4s4.4,2,4.4,4.4S52.1,36.1,49.7,36.1z"/>
			</g>
		</symbol>

		<!-- Xing -->
		<symbol id="xing" viewBox="0 0 54 52">
			<title>
				Xing
			</title>
			<path d="M10.1,11c-0.4,0-0.8,0.2-1,0.5c-0.2,0.3-0.2,0.7,0,1.1l4.9,8.5c0,0,0,0,0,0L6.4,34.7c-0.2,0.4-0.2,0.8,0,1.1
					c0.2,0.3,0.5,0.5,0.9,0.5h7.2c1.1,0,1.6-0.7,2-1.4c0,0,7.5-13.3,7.8-13.8c0,0-5-8.7-5-8.7c-0.4-0.6-0.9-1.4-2-1.4L10.1,11L10.1,11z"/>
			<path style="fill: #00BA99;" d="M40.6,1.1c-1.1,0-1.6,0.7-1.9,1.4c0,0-15.6,27.7-16.1,28.6c0,0,10.3,18.9,10.3,18.9c0.4,0.6,0.9,1.4,2,1.4h7.2
								c0.4,0,0.8-0.2,1-0.5c0.2-0.3,0.2-0.7,0-1.1L32.8,31.1c0,0,0,0,0,0l16-28.4c0.2-0.4,0.2-0.8,0-1.1c-0.2-0.3-0.5-0.5-1-0.5L40.6,1.1
								L40.6,1.1L40.6,1.1L40.6,1.1z"/>
		</symbol>

	</defs>
</svg>