<?xml version="1.0" encoding="utf-8"?>
<!-- Generator: Adobe Illustrator 16.0.4, SVG Export Plug-In . SVG Version: 6.00 Build 0)  -->
<!DOCTYPE svg PUBLIC "-//W3C//DTD SVG 1.1//EN" "http://www.w3.org/Graphics/SVG/1.1/DTD/svg11.dtd">
<svg version="1.1" xmlns="http://www.w3.org/2000/svg" xmlns:xlink="http://www.w3.org/1999/xlink" x="0px" y="0px"
	 width="394.332px" height="352.667px" viewBox="0 0 394.332 352.667" enable-background="new 0 0 394.332 352.667"
	 xml:space="preserve">
<g id="Ebene_7">
</g>
<g id="GlobeTheater" display="none">
	
		<ellipse display="inline" fill="none" stroke="#FF3399" stroke-width="1.5" stroke-miterlimit="10" cx="-236.209" cy="87.292" rx="52.875" ry="54.125"/>
	
		<image display="inline" overflow="visible" width="837" height="856" xlink:href="../../../../Volumes/MY PASSPORT/3_Master2013/Mastertheorie/Gedacht/BildGedacht/Gedaechtnistheater/star.jpg"  transform="matrix(0.24 0 0 0.24 -336.334 -0.333)">
	</image>
</g>
<g id="Zirkel_2">
	
		<ellipse fill="none" stroke="#FF3399" stroke-width="3.375" stroke-linecap="round" stroke-linejoin="round" stroke-miterlimit="10" cx="-257.834" cy="182.198" rx="119.25" ry="121.5"/>
	<rect x="-356.834" y="45.511" fill="#FFFFFF" width="199.125" height="52.875"/>
</g>
<g id="_x31_">
	
		<polygon fill="none" stroke="#FF3399" stroke-width="1.8" stroke-linecap="round" stroke-linejoin="round" stroke-miterlimit="10" points="
		-402.397,262.073 -258.958,15.136 -113.271,266.011 	"/>
</g>
<g id="_x32_">
	
		<polygon fill="none" stroke="#FF3399" stroke-width="1.8" stroke-linecap="round" stroke-linejoin="round" stroke-miterlimit="10" points="
		-424.347,180.657 -177.564,36.956 -174.994,327.056 	"/>
</g>
<g id="_x33_">
	
		<polygon fill="none" stroke="#FF3399" stroke-width="1.8" stroke-linecap="round" stroke-linejoin="round" stroke-miterlimit="10" points="
		-399.434,99.849 -113.857,99.83 -257.593,351.831 	"/>
</g>
<g id="_x34_">
	
		<polygon fill="none" stroke="#FF3399" stroke-width="1.8" stroke-linecap="round" stroke-linejoin="round" stroke-miterlimit="10" points="
		-337.793,37.483 -90.863,180.929 -341.741,326.608 	"/>
</g>
<g id="Zirkel">
</g>
<g id="Ebene_8">
	<g>
		<g>
			<g>
				<path fill="none" stroke="#FF3399" stroke-width="2.7" stroke-linecap="round" stroke-linejoin="round" d="M-343.115,97.382
					c-0.778,0.812-1.546,1.634-2.302,2.467h3.375"/>
				
					<line fill="none" stroke="#FF3399" stroke-width="2.7" stroke-linecap="round" stroke-linejoin="round" stroke-dasharray="6.7591,6.7591" x1="-335.283" y1="99.849" x2="-176.443" y2="99.849"/>
				<path fill="none" stroke="#FF3399" stroke-width="2.7" stroke-linecap="round" stroke-linejoin="round" d="M-173.064,99.849
					h3.375c-0.756-0.833-1.523-1.655-2.301-2.467"/>
				
					<path fill="none" stroke="#FF3399" stroke-width="2.7" stroke-linecap="round" stroke-linejoin="round" stroke-dasharray="6.5979,6.5979" d="
					M-176.686,92.749c-21.283-19.895-49.676-32.05-80.867-32.05c-32.368,0-61.722,13.089-83.243,34.332"/>
			</g>
		</g>
	</g>
	<circle fill="#FF3399" cx="-333.491" cy="133.683" r="3.656"/>
	<circle fill="#FF3399" cx="-184.709" cy="133.683" r="3.656"/>
</g>
<g id="Ebene_10">
	<rect x="-264.866" y="308.058" fill="#FF3399" width="11.251" height="2.531"/>
	<rect x="-264.866" y="312.839" fill="#FF3399" width="11.251" height="2.531"/>
	
		<rect x="-201.818" y="292.564" transform="matrix(0.892 -0.452 0.452 0.892 -153.9961 -56.951)" fill="#FF3399" width="11.25" height="2.532"/>
	
		<rect x="-199.657" y="296.831" transform="matrix(0.8921 -0.4518 0.4518 0.8921 -155.6086 -55.504)" fill="#FF3399" width="11.251" height="2.531"/>
	
		<rect x="-153.324" y="244.025" transform="matrix(0.4907 -0.8713 0.8713 0.4907 -288.9501 -3.7702)" fill="#FF3399" width="11.248" height="2.531"/>
	<polygon fill="#FF3399" points="-139.668,243.358 -145.193,253.158 -147.395,251.916 -141.875,242.116 	"/>
	
		<rect x="-139.007" y="183.327" transform="matrix(-0.0016 -1 1 -0.0016 -318.1843 51.4971)" fill="#FF3399" width="11.247" height="2.531"/>
	<polygon fill="#FF3399" points="-127.34,178.96 -127.328,190.21 -129.857,190.21 -129.871,178.96 	"/>
	
		<rect x="-326.459" y="292.307" transform="matrix(-0.8921 -0.4519 0.4519 -0.8921 -739.7014 410.494)" fill="#FF3399" width="11.249" height="2.532"/>
	
		<rect x="-328.623" y="296.575" transform="matrix(-0.892 -0.452 0.452 -0.892 -745.7389 417.5258)" fill="#FF3399" width="11.252" height="2.531"/>
	
		<rect x="-374.766" y="242.004" transform="matrix(-0.4905 -0.8714 0.8714 -0.4905 -762.2042 40.9202)" fill="#FF3399" width="11.252" height="2.532"/>
	<polygon fill="#FF3399" points="-377.174,241.343 -371.647,251.143 -369.446,249.897 -374.967,240.098 	"/>
	<polygon fill="#FF3399" points="-384.715,176.946 -384.733,188.196 -382.202,188.198 -382.184,176.946 	"/>
	
		<rect x="-393.867" y="181.299" transform="matrix(0.0012 -1 1 0.0012 -570.3342 -205.8988)" fill="#FF3399" width="11.25" height="2.531"/>
</g>
<g id="Zirkel1">
	
		<rect x="-337.709" y="12.511" fill="none" stroke="#FF3399" stroke-width="2.245" stroke-linecap="round" stroke-linejoin="round" stroke-miterlimit="10" width="160.875" height="169.688"/>
	
		<ellipse fill="none" stroke="#FF3399" stroke-width="2.2545" stroke-linecap="round" stroke-linejoin="round" stroke-miterlimit="10" cx="-257.834" cy="183.147" rx="166.5" ry="169.137"/>
</g>
<g id="Ebene_9">
	
		<polygon fill="none" stroke="#FF3399" stroke-width="1.8" stroke-linecap="round" stroke-linejoin="round" stroke-miterlimit="10" points="
		-258.958,10.636 -159.396,12.886 -63.771,186.698 -163.896,355.448 -355.147,353.761 -451.896,182.198 -352.897,12.323 	"/>
	<path fill="#FF3399" d="M342.625,258.942c-0.004,0-0.008,0-0.013,0l-289.126-3.938c-0.319-0.005-0.612-0.179-0.771-0.457
		c-0.157-0.278-0.155-0.619,0.005-0.896L196.159,6.715c0.322-0.555,1.234-0.555,1.557,0L343.32,257.447
		c0.14,0.158,0.225,0.366,0.225,0.595c0,0.497-0.403,0.9-0.9,0.9C342.638,258.941,342.632,258.942,342.625,258.942z M55.051,253.226
		l285.998,3.895L196.938,8.959L55.051,253.226z"/>
	<path fill="#FF3399" d="M280.922,319.987c-0.004,0.001-0.012,0-0.02,0c-0.157,0-0.315-0.042-0.456-0.124L31.093,173.465
		c-0.275-0.162-0.444-0.458-0.444-0.778c0.001-0.319,0.171-0.615,0.447-0.775L277.879,28.209c0.279-0.162,0.619-0.162,0.898-0.004
		c0.278,0.159,0.452,0.454,0.455,0.774l2.568,289.91c0.014,0.063,0.021,0.13,0.021,0.197
		C281.822,319.584,281.419,319.987,280.922,319.987z M33.332,172.691l246.656,144.815l-2.542-286.962L33.332,172.691z"/>
	<path fill="#FF3399" d="M198.303,344.763c-0.001,0-0.002,0-0.003,0c-0.324-0.001-0.622-0.177-0.781-0.459L55.678,92.321
		c-0.157-0.279-0.154-0.62,0.007-0.896c0.162-0.276,0.457-0.446,0.777-0.446l285.577-0.019c0.32,0,0.617,0.17,0.778,0.448
		s0.162,0.62,0.004,0.898L199.085,344.309C198.925,344.589,198.626,344.763,198.303,344.763z M58.001,92.78l140.307,249.257
		L340.489,92.761L58.001,92.78z"/>
	<path fill="#FF3399" d="M114.155,319.54c-0.157,0-0.314-0.041-0.454-0.123c-0.28-0.164-0.45-0.466-0.446-0.79l3.947-289.125
		c0.005-0.32,0.179-0.613,0.457-0.771c0.279-0.157,0.62-0.155,0.896,0.005l246.931,143.445c0.277,0.161,0.448,0.458,0.448,0.778
		s-0.171,0.617-0.448,0.778l-250.878,145.68C114.468,319.499,114.312,319.54,114.155,319.54z M118.981,31.066l-3.904,285.998
		L363.241,172.96L118.981,31.066z"/>
	<path fill="none" stroke="#FFFFFF" stroke-width="0" stroke-linecap="round" stroke-linejoin="round" d="M286.225,92.417
		c-0.162-0.181-0.328-0.357-0.491-0.537"/>
	<g>
		<g>
			<path fill="#FF3399" d="M195.603,53.555c-0.539,0-0.983-0.43-0.999-0.973c-0.015-0.552,0.421-1.012,0.973-1.027
				c1.082-0.03,2.169-0.044,3.258-0.044c0.553,0,1.072,0.449,1.072,1.001s-0.375,1.001-0.928,1.001
				c-0.007,0-0.087-0.001-0.094-0.001c-1.123,0.002-2.189,0.014-3.254,0.042C195.621,53.555,195.612,53.555,195.603,53.555z"/>
			<path fill="#FF3399" d="M118.017,85.67c-0.267,0-0.532-0.106-0.729-0.315c-0.378-0.403-0.357-1.036,0.045-1.414
				c1.748-1.641,3.565-3.249,5.4-4.78c0.426-0.354,1.056-0.295,1.408,0.127c0.354,0.424,0.297,1.055-0.127,1.409
				c-1.806,1.505-3.593,3.087-5.312,4.702C118.508,85.58,118.262,85.67,118.017,85.67z M129,76.515
				c-0.307,0-0.609-0.141-0.806-0.407c-0.328-0.444-0.233-1.07,0.211-1.398c1.93-1.423,3.925-2.804,5.932-4.105
				c0.463-0.301,1.083-0.169,1.383,0.295c0.301,0.463,0.169,1.083-0.295,1.383c-1.973,1.28-3.936,2.638-5.832,4.037
				C129.414,76.452,129.206,76.515,129,76.515z M140.997,68.734c-0.349,0-0.688-0.183-0.871-0.507
				c-0.272-0.481-0.104-1.091,0.378-1.363c2.087-1.182,4.234-2.313,6.382-3.363c0.498-0.242,1.095-0.037,1.338,0.459
				c0.242,0.496,0.037,1.095-0.459,1.337c-2.112,1.032-4.224,2.145-6.276,3.306C141.333,68.692,141.164,68.734,140.997,68.734z
				 M153.844,62.456c-0.392,0-0.764-0.232-0.924-0.617c-0.212-0.51,0.03-1.095,0.54-1.307c2.217-0.92,4.485-1.782,6.746-2.563
				c0.518-0.179,1.092,0.097,1.271,0.619c0.181,0.522-0.097,1.092-0.619,1.272c-2.222,0.767-4.453,1.615-6.631,2.519
				C154.102,62.431,153.972,62.456,153.844,62.456z M167.361,57.788c-0.438,0-0.84-0.29-0.963-0.733
				c-0.147-0.532,0.164-1.083,0.696-1.231c2.307-0.642,4.665-1.22,7.009-1.719c0.539-0.117,1.07,0.229,1.187,0.77
				c0.114,0.541-0.23,1.071-0.771,1.187c-2.304,0.491-4.621,1.059-6.89,1.689C167.54,57.775,167.45,57.788,167.361,57.788z
				 M181.353,54.808c-0.487,0-0.914-0.356-0.988-0.852c-0.081-0.546,0.295-1.055,0.842-1.137c2.369-0.354,4.78-0.641,7.166-0.85
				c0.563-0.037,1.035,0.358,1.084,0.909c0.049,0.55-0.358,1.035-0.908,1.083c-2.347,0.206-4.717,0.487-7.047,0.835
				C181.451,54.804,181.401,54.808,181.353,54.808z"/>
			<path fill="#FF3399" d="M110.671,93.198c-0.237,0-0.476-0.084-0.667-0.254c-0.411-0.368-0.446-1-0.078-1.412
				c0.756-0.846,1.523-1.68,2.303-2.504c0.379-0.401,1.012-0.419,1.414-0.04c0.4,0.379,0.419,1.012,0.039,1.414
				c-0.766,0.81-1.521,1.631-2.266,2.463C111.219,93.085,110.945,93.198,110.671,93.198z"/>
		</g>
		<g>
			<path fill="#FF3399" d="M202.354,53.565c-0.011,0-0.021,0-0.03,0c-1.112-0.033-2.228-0.05-3.347-0.051
				c-0.553,0-1-0.449-0.999-1.001c0.001-0.552,0.448-0.999,1-0.999h0.001c1.139,0.001,2.273,0.019,3.403,0.052
				c0.553,0.016,0.986,0.477,0.971,1.029C203.337,53.137,202.893,53.565,202.354,53.565z"/>
			<path fill="#FF3399" d="M279.172,85.23c-0.244,0-0.488-0.088-0.681-0.268c-1.705-1.584-3.48-3.14-5.276-4.623
				c-0.426-0.352-0.486-0.982-0.135-1.408c0.353-0.426,0.981-0.487,1.408-0.134c1.826,1.507,3.631,3.089,5.364,4.7
				c0.404,0.376,0.428,1.009,0.052,1.413C279.707,85.123,279.439,85.23,279.172,85.23z M268.267,76.227
				c-0.204,0-0.411-0.062-0.589-0.192c-1.889-1.38-3.835-2.716-5.784-3.971c-0.465-0.299-0.599-0.917-0.3-1.382
				c0.299-0.464,0.918-0.599,1.382-0.299c1.982,1.276,3.961,2.634,5.882,4.037c0.446,0.326,0.543,0.952,0.218,1.397
				C268.879,76.085,268.575,76.227,268.267,76.227z M256.374,68.572c-0.166,0-0.334-0.041-0.489-0.128
				c-2.03-1.142-4.121-2.237-6.215-3.254c-0.496-0.241-0.703-0.84-0.462-1.336c0.241-0.496,0.837-0.705,1.337-0.462
				c2.129,1.035,4.256,2.148,6.32,3.31c0.481,0.271,0.652,0.88,0.381,1.362C257.062,68.388,256.724,68.572,256.374,68.572z
				 M243.654,62.39c-0.128,0-0.257-0.025-0.382-0.076c-2.156-0.892-4.364-1.728-6.561-2.484c-0.522-0.18-0.8-0.749-0.62-1.271
				s0.752-0.799,1.271-0.62c2.235,0.77,4.48,1.62,6.674,2.526c0.511,0.211,0.753,0.796,0.542,1.307
				C244.419,62.157,244.047,62.39,243.654,62.39z M230.281,57.784c-0.089,0-0.179-0.012-0.269-0.037
				c-2.241-0.623-4.534-1.186-6.814-1.672c-0.54-0.115-0.885-0.647-0.769-1.187c0.114-0.541,0.646-0.887,1.187-0.769
				c2.319,0.495,4.651,1.068,6.932,1.702c0.532,0.148,0.844,0.699,0.696,1.231C231.121,57.494,230.719,57.784,230.281,57.784z
				 M216.446,54.83c-0.05,0-0.1-0.003-0.15-0.011c-2.295-0.347-4.64-0.628-6.967-0.837c-0.551-0.049-0.956-0.535-0.907-1.085
				c0.05-0.549,0.529-0.947,1.085-0.907c2.368,0.212,4.753,0.499,7.088,0.852c0.546,0.083,0.922,0.592,0.84,1.138
				C217.359,54.475,216.933,54.83,216.446,54.83z"/>
			<path fill="#FF3399" d="M286.505,92.661c-0.272,0-0.544-0.111-0.741-0.329c-0.749-0.827-1.509-1.644-2.28-2.449
				c-0.382-0.399-0.368-1.032,0.031-1.414c0.398-0.381,1.033-0.367,1.414,0.031c0.783,0.819,1.557,1.649,2.317,2.49
				c0.371,0.409,0.339,1.042-0.07,1.412C286.984,92.576,286.744,92.661,286.505,92.661z"/>
		</g>
	</g>
	<path fill="#FF3399" d="M198.062,296.979c-66.444,0-120.501-55.065-120.501-122.75c0-30.652,11.153-60.003,31.406-82.646
		l1.863,1.667c-19.842,22.184-30.77,50.943-30.77,80.979c0,66.306,52.935,120.25,118.001,120.25c65.065,0,118-53.944,118-120.25
		c0-30.036-10.928-58.795-30.77-80.979l1.863-1.667c20.253,22.643,31.406,51.994,31.406,82.646
		C318.562,241.914,264.507,296.979,198.062,296.979z"/>
	
		<line fill="none" stroke="#FFFFFF" stroke-width="0" stroke-linecap="round" stroke-linejoin="round" x1="286.225" y1="92.417" x2="109.899" y2="92.417"/>
	<circle fill="#FF3399" cx="122.405" cy="125.714" r="3.656"/>
	<circle fill="#FF3399" cx="271.188" cy="125.714" r="3.656"/>
	<rect x="191.03" y="300.089" fill="#FF3399" width="11.251" height="2.531"/>
	<rect x="191.03" y="304.87" fill="#FF3399" width="11.251" height="2.531"/>
	
		<rect x="254.078" y="284.595" transform="matrix(0.892 -0.452 0.452 0.892 -101.1659 148.2533)" fill="#FF3399" width="11.25" height="2.532"/>
	
		<rect x="256.24" y="288.862" transform="matrix(0.8921 -0.4518 0.4518 0.8921 -102.8281 149.6061)" fill="#FF3399" width="11.251" height="2.531"/>
	
		<rect x="302.572" y="236.056" transform="matrix(0.4907 -0.8713 0.8713 0.4907 -49.8216 389.4054)" fill="#FF3399" width="11.248" height="2.531"/>
	<polygon fill="#FF3399" points="316.229,235.39 310.703,245.189 308.502,243.947 314.021,234.147 	"/>
	
		<rect x="316.889" y="175.358" transform="matrix(-0.0016 -1 1 -0.0016 146.3934 499.4119)" fill="#FF3399" width="11.247" height="2.531"/>
	<polygon fill="#FF3399" points="328.557,170.991 328.568,182.241 326.039,182.241 326.025,170.991 	"/>
	
		<rect x="129.437" y="284.338" transform="matrix(-0.8921 -0.4519 0.4519 -0.8921 126.4949 601.418)" fill="#FF3399" width="11.249" height="2.532"/>
	
		<rect x="127.273" y="288.606" transform="matrix(-0.892 -0.452 0.452 -0.892 120.4269 608.5128)" fill="#FF3399" width="11.252" height="2.531"/>
	
		<rect x="81.13" y="234.036" transform="matrix(-0.4905 -0.8714 0.8714 -0.4905 -75.7375 426.3238)" fill="#FF3399" width="11.252" height="2.532"/>
	<polygon fill="#FF3399" points="78.722,233.374 84.249,243.174 86.45,241.929 80.929,232.129 	"/>
	<polygon fill="#FF3399" points="71.181,168.978 71.163,180.228 73.694,180.229 73.712,168.978 	"/>
	
		<rect x="62.029" y="173.33" transform="matrix(0.0012 -1 1 0.0012 -107.0235 242.0378)" fill="#FF3399" width="11.25" height="2.531"/>
	<path fill="#FF3399" d="M198.061,345.442c-92.429,0-167.625-76.38-167.625-170.264S105.632,4.915,198.061,4.915
		c92.431,0,167.629,76.38,167.629,170.264S290.491,345.442,198.061,345.442z M198.061,7.169
		c-91.186,0-165.371,75.369-165.371,168.009s74.186,168.01,165.371,168.01c91.188,0,165.375-75.369,165.375-168.01
		S289.248,7.169,198.061,7.169z"/>
</g>
<g id="Ebene_13" display="none">
	<path display="inline" fill="#FF3399" d="M279.062,175.352H118.187c-0.62,0-1.122-0.502-1.122-1.122V4.542
		c0-0.62,0.502-1.123,1.122-1.123h160.876c0.62,0,1.122,0.502,1.122,1.123v169.688C280.185,174.85,279.683,175.352,279.062,175.352z
		 M119.309,173.107H277.94V5.665H119.309V173.107z"/>
	<path display="inline" fill="#FF3399" d="M292,348.38c-0.003,0-0.005,0-0.008,0l-191.251-1.688
		c-0.322-0.003-0.618-0.178-0.776-0.458L3.216,174.672c-0.156-0.278-0.154-0.619,0.007-0.896L102.222,3.901
		c0.158-0.271,0.446-0.441,0.761-0.447l93.938-1.688l99.6,2.25c0.32,0.007,0.613,0.185,0.768,0.466l95.625,173.812
		c0.154,0.279,0.148,0.619-0.014,0.893l-100.125,168.75C292.612,348.212,292.317,348.38,292,348.38z M101.277,344.896l190.213,1.679
		l99.599-167.862L295.961,5.805l-99.044-2.238l-93.396,1.678L5.037,174.237L101.277,344.896z"/>
</g>
</svg>
