<?xml version="1.0" encoding="utf-8"?>
<!-- Generator: Adobe Illustrator 16.0.4, SVG Export Plug-In . SVG Version: 6.00 Build 0)  -->
<!DOCTYPE svg PUBLIC "-//W3C//DTD SVG 1.1//EN" "http://www.w3.org/Graphics/SVG/1.1/DTD/svg11.dtd">
<svg version="1.1" xmlns="http://www.w3.org/2000/svg" xmlns:xlink="http://www.w3.org/1999/xlink" x="0px" y="0px" width="256px"
	 height="256px" viewBox="0 0 256 256" enable-background="new 0 0 256 256" xml:space="preserve">
<g id="Ebene_2" display="none">
	
		<polygon display="inline" fill="none" stroke="#FF3399" stroke-width="1.5" stroke-linecap="round" stroke-linejoin="round" stroke-miterlimit="10" points="
		126.707,15 191.575,16.466 253.879,129.711 188.644,239.658 64.037,238.561 1,126.779 65.502,16.1 	"/>
	
		<rect x="75.398" y="16.222" display="inline" fill="none" stroke="#FF3399" stroke-width="2" stroke-linecap="round" stroke-linejoin="round" stroke-miterlimit="10" width="104.816" height="110.558"/>
</g>
<g id="Ebene_1">
	
		<polygon fill="none" stroke="#FF3399" stroke-width="2" stroke-linecap="round" stroke-linejoin="round" stroke-miterlimit="10" points="
		33.251,178.822 126.707,17.932 221.628,181.387 	"/>
	
		<polygon fill="none" stroke="#FF3399" stroke-width="2" stroke-linecap="round" stroke-linejoin="round" stroke-miterlimit="10" points="
		18.949,125.775 179.738,32.149 181.413,221.16 	"/>
	
		<polygon fill="none" stroke="#FF3399" stroke-width="2" stroke-linecap="round" stroke-linejoin="round" stroke-miterlimit="10" points="
		35.182,73.125 221.245,73.114 127.596,237.303 	"/>
	
		<polygon fill="none" stroke="#FF3399" stroke-width="2" stroke-linecap="round" stroke-linejoin="round" stroke-miterlimit="10" points="
		75.343,32.493 236.228,125.953 72.771,220.869 	"/>
	<g>
		<g>
			<g>
				<path fill="none" stroke="#FF3399" stroke-width="2" stroke-linecap="round" stroke-linejoin="round" d="M71.876,71.518
					c-0.507,0.529-1.007,1.064-1.5,1.607h2.199"/>
				
					<line fill="none" stroke="#FF3399" stroke-width="2" stroke-linecap="round" stroke-linejoin="round" stroke-dasharray="4.4039,4.4039" x1="76.979" y1="73.125" x2="180.47" y2="73.125"/>
				<path fill="none" stroke="#FF3399" stroke-width="2" stroke-linecap="round" stroke-linejoin="round" d="M182.671,73.125h2.199
					c-0.493-0.543-0.993-1.079-1.5-1.607"/>
				
					<path fill="none" stroke="#FF3399" stroke-width="2" stroke-linecap="round" stroke-linejoin="round" stroke-dasharray="4.2988,4.2988" d="
					M180.312,68.5c-13.867-12.961-32.366-20.882-52.689-20.882c-21.09,0-40.215,8.53-54.238,22.371"/>
			</g>
		</g>
	</g>
	<circle fill="#FF3399" cx="78.146" cy="95.17" r="2.382"/>
	<circle fill="#FF3399" cx="175.083" cy="95.17" r="2.382"/>
	<rect x="122.858" y="208.783" fill="#FF3399" width="7.331" height="1.648"/>
	<rect x="122.858" y="211.898" fill="#FF3399" width="7.331" height="1.648"/>
	
		<rect x="163.936" y="198.688" transform="matrix(0.8921 -0.4519 0.4519 0.8921 -72.07 97.2718)" fill="#FF3399" width="7.33" height="1.649"/>
	
		<rect x="165.345" y="201.469" transform="matrix(0.8922 -0.4517 0.4517 0.8922 -73.1497 98.1507)" fill="#FF3399" width="7.329" height="1.649"/>
	
		<rect x="195.532" y="167.061" transform="matrix(0.4906 -0.8714 0.8714 0.4906 -44.8215 259.1004)" fill="#FF3399" width="7.329" height="1.65"/>
	
		<rect x="198.248" y="168.593" transform="matrix(0.4913 -0.871 0.871 0.4913 -44.8493 262.0391)" fill="#FF3399" width="7.328" height="1.646"/>
	
		<rect x="204.86" y="127.516" transform="matrix(-0.0015 -1 1 -0.0015 80.4897 337.0519)" fill="#FF3399" width="7.328" height="1.648"/>
	
		<rect x="207.976" y="127.511" transform="matrix(-0.0011 -1 1 -0.0011 83.5316 340.113)" fill="#FF3399" width="7.33" height="1.647"/>
	
		<rect x="82.728" y="198.52" transform="matrix(-0.892 -0.452 0.452 -0.892 73.358 416.2136)" fill="#FF3399" width="7.329" height="1.649"/>
	
		<rect x="81.318" y="201.301" transform="matrix(-0.892 -0.4521 0.4521 -0.892 69.4104 420.8354)" fill="#FF3399" width="7.332" height="1.648"/>
	
		<rect x="51.253" y="165.745" transform="matrix(-0.4904 -0.8715 0.8715 -0.4904 -63.3121 296.1201)" fill="#FF3399" width="7.333" height="1.651"/>
	
		<rect x="48.537" y="167.278" transform="matrix(-0.4913 -0.871 0.871 -0.4913 -68.5635 296.1594)" fill="#FF3399" width="7.331" height="1.648"/>
	
		<rect x="41.926" y="126.199" transform="matrix(0.0015 -1 1 0.0015 -81.5031 172.4193)" fill="#FF3399" width="7.33" height="1.649"/>
	
		<rect x="38.809" y="126.194" transform="matrix(0.0012 -1 1 0.0012 -84.5958 169.3403)" fill="#FF3399" width="7.33" height="1.649"/>
	
		<ellipse fill="none" stroke="#FF3399" stroke-width="1.5" stroke-linecap="round" stroke-linejoin="round" stroke-miterlimit="10" cx="127.439" cy="127.398" rx="108.481" ry="110.199"/>
	<path fill="none" stroke="#FF3399" stroke-width="3.2" stroke-linecap="round" stroke-linejoin="round" stroke-miterlimit="10" d="
		M69.883,73.667c-12.497,14.047-20.14,32.66-20.14,53.112c0,43.721,34.785,79.162,77.696,79.162
		c42.91,0,77.696-35.441,77.696-79.162c0-20.453-7.644-39.065-20.141-53.112"/>
</g>
</svg>
